<svg xmlns="http://www.w3.org/2000/svg" version="1.1" xmlns:xlink="http://www.w3.org/1999/xlink" xmlns:svgjs="http://svgjs.dev/svgjs" width="1000" height="1125" viewBox="0 0 1000 1125"><g transform="matrix(1,0,0,1,0.00007343750002064553,0)"><svg viewBox="0 0 320 360" data-background-color="#ffffff" preserveAspectRatio="xMidYMid meet" height="1125" width="1000" xmlns="http://www.w3.org/2000/svg" xmlns:xlink="http://www.w3.org/1999/xlink"><g id="tight-bounds" transform="matrix(1,0,0,1,0.000023499999997511622,0)"><svg viewBox="0 0 320 360" height="360" width="320"><g><svg></svg></g><g><svg viewBox="0 0 320 360" height="360" width="320"><g><path transform="translate(-74.99272,-51.79039) scale(4.65793,4.65793)" d="M20.6 59.9l0.8 1-0.4-1.3c-0.1-0.6-0.8 0.1-0.4 0.3M21.5 59.3c0.3 0.5 0.6 1 0.6 1.5 0 0.7 0.6 1 1.1 1.2-0.7-0.8-1.1-3-1.7-2.7M59.9 16.9c1.7 0 3.3-0.2 5.1 0.2 4.4 1.1 8.1 3.3 10.6 6.4l7 11.2c0.3 2.8 0.9 5.9 0.8 9.3 0.7 0 0.6-1 1.4-1.2-0.8 2-1.2 4.5-1.4 7.4-0.5-1.6 0-4 0.1-5.3-0.7 1.1-1.1 0.3-1.1-0.2 0.1-0.8-0.3-0.7-0.6-1-1.1-1-1.8-2.1-2.6-3.8 0.5-1.3 0.6-3.2-1-4.2-0.5-0.3-1.1-0.8-1.4-1.6-0.4-1.1-1.1-2.4-0.9-4.1 0.1-0.5-1.5 1.1-2.4 0.4-3.9-2.7-7.8-5.8-12.5-8.4-2.5 0-4.3-0.9-5.2-2-0.8-1-0.2-2.3 1-2.4 0.7 0 1.5-0.2 2.1 0.2 0.1-0.4 0.5-0.9 1-0.9M50 14.6l0.2 0.1c1 0.2 1.5 1.6 2.6 1.1 0 0.7 0.1 1.4-0.1 1.9-0.3 0.8-1.2 0.8-1.9 0.8-6.7-0.4-10.6 2.4-14.7 4.8-1.1 0.7-2.3 1.2-3.2 2.1-4.3 4-9 7.7-10.1 15.1l-0.9 8.2c-0.1 0.9-1.1 1.8-0.9 2.9l0.7 4.9c-0.7-0.7-1.1 0.2-0.9 0.6 0.1 0.3 0.5 1.3 1.1 0.4 0.8 1.5 1.6 4.4 2.7 5.7 3.4 4 7.8 7.6 11.4 11.2 0.9-0.2 1.6-0.2 1.8-0.8 0.3 0.6-0.3 1.2-0.8 1.3 1.6 1 3.4 1.9 5.8 2.1 3.1 0.2 6 0.7 8.7 1.4 1.4-0.4 2.8-0.6 4.3-0.7 0.5 0 0.8-0.8 1.4-1l0.1-1c0.6 0.9 0.5-0.3 0.1-0.9 0.7 0.6 0.9 1.1 1.2 1.5 0-0.3 0.8-1.4 0.8-0.1l0.2-1.3c0.3-0.2 0.4 1.1 0.7 0.2 0.3-0.9 0.9-0.2 1.5-0.5-0.2 0.4-0.1 1.2 0.6 0.7l0.8-0.7c0.5 1.2 1.3 0.7 1.7 0.5 4.4-2.8 8.8-6.1 13-9.4l-0.1 1.3 0.5-1.6c0.5 0.5 0.9 0.1 1.1-0.2 0.6-1 1.4-2 2.7-2.9-1.6 4.3-3.5 7.7-5.9 10.5l-1 1.2c0 0.7-0.2 1.6-1 1.7-0.4 0.1-1.2-0.2-1.8 0.4-0.3 0.4 0.7 1.2-0.1 0.6-0.7-0.5-1.4 0-2.2 0.2-0.6 0.2 0.4 0.8 0.6 1.2 0.2 0.4 0.4 0.8 0.3 1.3l-1.1-1.2c-1.3 0.7-2.1 2-3.2 3-0.5 0.4-0.3 1.1-0.3 1.7-0.7 0-1.5-0.2-1.9 0.2-0.3 0.4-0.2 1-0.2 1.6-1-0.1-1.1-1.6-2-1.3-0.9 0.2-1.9 0.3-2.7 0.8 0.6 1.2-1 0.5-0.8 0.7-1.5-0.9-2.8-1.6-4.4-1-3.4-1.1-7.6-0.6-10.7-0.2 0-0.5 0.1-1-0.1-1.1-0.2 0.5-0.8 0.3-0.7 0.3-1.9-1.3-3.8-2.1-5.8-3.2-1.8 0.2-3.5-0.7-4-1.2-1.4-1.3-3-0.6-4.3-0.9-2.8-0.7-3.8-3.6-4.1-5.6-0.2-1-1-1.4-1.3-1.3-1.3-4.2-3.3-8-4.9-11.9-0.4-1-0.3-2-0.3-3.1 0.5 0.2 1 0.1 0.9-0.6-0.5-3.3-1.7-5.8-3-8.2 0.7-3.4 0.8-7.4 2.4-10.4 1.4-2.7 4-4.1 5.8-6.4 0.6-0.8 0.6-1.9 1.2-2.6 2-2 4-4.1 6.2-5.9 1-0.8 2.2 0 3.7-0.3 0.5-1.8 2.5-3.4 4.4-2.9 0.8 0.2 2.4-1.9 2.9-2.1 0.8-0.3 0.4 0.8 0.4 1.5 1.9-1.5 4.5-2.3 6.9-3.2" fill="#d13fbb" fill-rule="nonzero" stroke="none" stroke-width="1" stroke-linecap="butt" stroke-linejoin="miter" stroke-miterlimit="10" stroke-dasharray="" stroke-dashoffset="0" font-family="none" font-weight="none" font-size="none" text-anchor="none" style="mix-blend-mode: normal" data-fill-palette-color="tertiary"></path></g><g transform="matrix(1,0,0,1,64.00000000000001,143.07032765217392)"><svg viewBox="0 0 191.99999999999997 73.85934469565217" height="73.85934469565217" width="191.99999999999997"><g><svg viewBox="0 0 191.99999999999997 73.85934469565217" height="73.85934469565217" width="191.99999999999997"><g><svg viewBox="0 0 192.00000000000003 73.85934469565218" height="73.85934469565217" width="191.99999999999997"><g transform="matrix(1,0,0,1,0,44.641953391304355)"><svg viewBox="0 0 192.00000000000003 29.217391304347828" height="29.217391304347828" width="192.00000000000003"><g id="textblocktransform"><svg viewBox="0 0 192.00000000000003 29.217391304347828" height="29.217391304347828" width="192.00000000000003" id="textblock"><g><svg viewBox="0 0 192.00000000000003 29.217391304347828" height="29.217391304347828" width="192.00000000000003"><g transform="matrix(1,0,0,1,0,0)"><svg width="192.00000000000003" viewBox="6.25 -50 287.49 43.75" height="29.217391304347828" data-palette-color="#a855d3"><path d="M31.25-6.25L18.75-6.25 18.75-25 12.5-25 12.5-31.25 6.25-31.25 6.25-50 18.75-50 18.75-31.25 31.25-31.25 31.25-50 43.75-50 43.75-31.25 37.5-31.25 37.5-25 31.25-25 31.25-6.25ZM93.75-6.25L56.25-6.25 56.25-12.5 50-12.5 50-37.5 62.5-37.5 62.5-12.5 81.25-12.5 81.25-37.5 93.75-37.5 93.75-6.25ZM131.25-6.25L118.75-6.25 118.75-31.25 106.25-31.25 106.25-37.5 118.75-37.5 118.75-50 131.25-50 131.25-37.5 143.75-37.5 143.75-31.25 131.25-31.25 131.25-6.25ZM193.74-25L156.24-25 156.24-31.25 193.74-31.25 193.74-25ZM237.49-6.25L206.24-6.25 206.24-12.5 199.99-12.5 199.99-31.25 206.24-31.25 206.24-37.5 237.49-37.5 237.49-31.25 243.74-31.25 243.74-18.75 212.49-18.75 212.49-12.5 237.49-12.5 237.49-6.25ZM212.49-31.25L212.49-25 231.24-25 231.24-31.25 212.49-31.25ZM262.49-6.25L249.99-6.25 249.99-37.5 287.49-37.5 287.49-31.25 293.74-31.25 293.74-6.25 281.24-6.25 281.24-31.25 262.49-31.25 262.49-6.25Z" opacity="1" transform="matrix(1,0,0,1,0,0)" fill="#a855d3" class="wordmark-text-0" data-fill-palette-color="primary" id="text-0"></path></svg></g></svg></g></svg></g></svg></g><g transform="matrix(1,0,0,1,77.18113671917277,0)"><svg viewBox="0 0 37.6377265616545 40.3784347826087" height="40.3784347826087" width="37.6377265616545"><g><svg xmlns="http://www.w3.org/2000/svg" xmlns:xlink="http://www.w3.org/1999/xlink" version="1.1" x="0" y="0" viewBox="8.033428138773548 4.9780000000000015 83.93314665341822 90.04499999999999" enable-background="new 0 0 100 100" xml:space="preserve" height="40.3784347826087" width="37.6377265616545" class="icon-icon-0" data-fill-palette-color="accent" id="icon-0"><g fill="#ba27be" data-fill-palette-color="accent"><path fill-rule="evenodd" clip-rule="evenodd" d="M66.087 23.87c-0.186-1.733-0.296-3.075-0.389-4.2-0.265-3.242-0.412-5.027-1.931-10.699-1.07-3.993-2.626-3.993-3.292-3.993-1.6 0-3.756 1.142-5.657 2.15-2.058 1.09-4.002 2.12-5.785 2.12-2.395 0-4.672-1.229-6.875-2.416-1.653-0.892-3.361-1.813-4.563-1.813-0.445 0-1.798 0-2.911 4.08-1.297 4.757-1.396 7.029-1.547 10.47-0.054 1.223-0.113 2.573-0.232 4.206 5.796 1.461 11.538 2.202 17.089 2.202 0 0 0.001 0 0.002 0C55.425 25.976 60.83 25.268 66.087 23.87z" fill="#ba27be" data-fill-palette-color="accent"></path><path fill-rule="evenodd" clip-rule="evenodd" d="M91.712 21.856c-0.293-0.404-0.729-0.589-1.215-0.52-6.881 0.924-13.896 1.578-20.971 1.988 0.054 0.503 0.112 1.039 0.182 1.62 0.1 0.844-0.426 1.636-1.241 1.873-6.013 1.75-12.228 2.636-18.47 2.636-0.001 0-0.001 0-0.001 0-6.306 0-12.832-0.904-19.397-2.687-0.812-0.221-1.35-0.993-1.276-1.831 0.063-0.717 0.113-1.379 0.155-2.002-6.046-0.45-12.156-1.057-18.308-1.848-0.154-0.02-0.304-0.031-0.451-0.031-0.462 0-0.89 0.106-1.345 0.331-0.136 0.068-0.276 0.145-0.412 0.23-0.624 0.393-0.944 0.989-0.928 1.725 0.01 0.447 0.167 0.98 1.234 1.839 7.368 5.938 21.908 9.344 39.892 9.344 7.858 0 15.866-0.664 23.157-1.921 10.868-1.874 17.432-5.043 19.51-9.422C92.046 22.719 92.007 22.262 91.712 21.856z" fill="#ba27be" data-fill-palette-color="accent"></path><path fill-rule="evenodd" clip-rule="evenodd" d="M70.728 40.501c0-1.389-0.146-2.744-0.402-4.059-6.769 1.02-14.028 1.559-21.165 1.559-5.365 0-12.883-0.314-20.447-1.646-0.269 1.341-0.42 2.726-0.42 4.146 0 11.7 9.518 21.217 21.218 21.217C61.209 61.719 70.728 52.201 70.728 40.501z" fill="#ba27be" data-fill-palette-color="accent"></path><path fill-rule="evenodd" clip-rule="evenodd" d="M41.93 64l7.843 11.605 7.611-11.703c-2.476 0.836-5.121 1.295-7.873 1.295C46.866 65.197 44.319 64.773 41.93 64z" fill="#ba27be" data-fill-palette-color="accent"></path><path fill-rule="evenodd" clip-rule="evenodd" d="M65.116 78.072l3.184 2.156c0.396 0.27 0.664 0.688 0.741 1.16 0.078 0.471-0.044 0.955-0.334 1.336L59.31 95.021h7.386v-8.234c0-0.961 0.778-1.74 1.738-1.74s1.739 0.779 1.739 1.74v8.234h11.461v-10.33c0-5.391-1.372-10.471-3.763-14.932L65.116 78.072z" fill="#ba27be" data-fill-palette-color="accent"></path><path fill-rule="evenodd" clip-rule="evenodd" d="M64.826 82.074L61 79.482c-0.483-0.326-0.77-0.873-0.765-1.455 0.006-0.582 0.303-1.123 0.79-1.441L79.3 64.678l-10.474-8.816c-1.509 1.893-3.286 3.561-5.279 4.943L51.52 79.297v15.725h3.413L64.826 82.074z" fill="#ba27be" data-fill-palette-color="accent"></path><path fill-rule="evenodd" clip-rule="evenodd" d="M40.426 95.021l-9.507-12.289c-0.293-0.381-0.417-0.865-0.341-1.34 0.076-0.473 0.344-0.895 0.742-1.164l3.185-2.156-12.805-8.346c-2.4 4.469-3.769 9.564-3.769 14.965v10.33h10.601v-8.234c0-0.961 0.779-1.74 1.739-1.74 0.96 0 1.739 0.779 1.739 1.74v8.234H40.426z" fill="#ba27be" data-fill-palette-color="accent"></path><path fill-rule="evenodd" clip-rule="evenodd" d="M35.659 60.936c-1.962-1.334-3.722-2.943-5.226-4.771l-10.113 8.514 18.275 11.908c0.487 0.318 0.784 0.859 0.789 1.441 0.005 0.582-0.281 1.129-0.763 1.455l-3.818 2.586 9.908 12.811c0.035 0.045 0.06 0.096 0.089 0.143h3.242V79.256L35.659 60.936z" fill="#ba27be" data-fill-palette-color="accent"></path></g></svg></g></svg></g><g></g></svg></g></svg></g></svg></g></svg></g><defs></defs></svg><rect width="320" height="360" fill="none" stroke="none" visibility="hidden"></rect></g></svg></g></svg>