<svg xmlns="http://www.w3.org/2000/svg" version="1.1" xmlns:xlink="http://www.w3.org/1999/xlink" xmlns:svgjs="http://svgjs.dev/svgjs" width="1000" height="191" viewBox="0 0 1000 191"><g transform="matrix(1,0,0,1,-0.6060401078528344,0.5731581238480743)"><svg viewBox="0 0 396 76" data-background-color="#ffffff" preserveAspectRatio="xMidYMid meet" height="191" width="1000" xmlns="http://www.w3.org/2000/svg" xmlns:xlink="http://www.w3.org/1999/xlink"><g id="tight-bounds" transform="matrix(1,0,0,1,0.24000811729027305,-0.22806291838980997)"><svg viewBox="0 0 395.5199999999999 76.45612583677962" height="76.45612583677962" width="395.5199999999999"><g><svg viewBox="0 0 606.521999900988 117.24393797331408" height="76.45612583677962" width="395.5199999999999"><g transform="matrix(1,0,0,1,211.0019999009881,0)"><svg viewBox="0 0 395.52 117.24393797331408" height="117.24393797331408" width="395.52"><g id="textblocktransform"><svg viewBox="0 0 395.52 117.24393797331408" height="117.24393797331408" width="395.52" id="textblock"><g><svg viewBox="0 0 395.52 117.24393797331408" height="117.24393797331408" width="395.52"><g transform="matrix(1,0,0,1,0,0)"><svg width="395.52" viewBox="10.45 -36.9 151.44 41.1" height="117.24393797331408" data-palette-color="#010c80"><g class="wordmark-text-0" data-fill-palette-color="primary" id="text-0"><path d="M23.5-17.25L23.5-17.25Q27.25-21.35 30.23-25.95 33.2-30.55 35.75-36.3L35.75-36.3Q37.05-36.15 38.25-35.6 39.45-35.05 40.15-34.35L40.15-34.35Q37.4-31.05 35.18-28.35 32.95-25.65 31.1-23.28 29.25-20.9 27.68-18.73 26.1-16.55 24.6-14.35L24.6-14.35Q23.85-11.8 23.2-9.2 22.55-6.6 22.05-4.23 21.55-1.85 21.28 0.18 21 2.2 21 3.65L21 3.65Q20.45 3.65 19.25 3.43 18.05 3.2 16.8 2.9 15.55 2.6 14.53 2.3 13.5 2 13.3 1.8L13.3 1.8Q14.1 0.45 14.88-1.53 15.65-3.5 16.4-5.68 17.15-7.85 17.85-10.08 18.55-12.3 19.15-14.2L19.15-14.2Q17.9-18.1 16.73-21.53 15.55-24.95 14.45-27.73 13.35-30.5 12.35-32.5 11.35-34.5 10.45-35.55L10.45-35.55Q10.95-35.75 11.98-35.95 13-36.15 14.23-36.35 15.45-36.55 16.73-36.68 18-36.8 19-36.85L19-36.85Q19-35.6 19.23-33.8 19.45-32 19.83-29.95 20.2-27.9 20.7-25.8 21.2-23.7 21.7-21.95 22.2-20.2 22.68-18.93 23.15-17.65 23.5-17.25ZM49.1-1.1L49.1-1.1Q48.15-1.9 47.82-3.1 47.5-4.3 47.5-5.15L47.5-5.15Q47.5-6.2 47.75-6.95L47.75-6.95Q47.55-6.95 46.85-6.15 46.15-5.35 45.32-4.25 44.5-3.15 43.7-2.1 42.9-1.05 42.5-0.55L42.5-0.55Q41.85 0.15 41.27 0.55 40.7 0.95 40.35 1L40.35 1Q39.55 0.95 38.67 0.68 37.8 0.4 37.02-0.1 36.25-0.6 35.67-1.3 35.1-2 34.9-2.9L34.9-2.9Q34.9-4.3 34.97-5.2 35.05-6.1 35.3-7.15L35.3-7.15Q35.75-9.05 36.62-11.45 37.5-13.85 38.65-16.18 39.8-18.5 41.22-20.53 42.65-22.55 44.25-23.7L44.25-23.7Q44.7-23.7 45.3-23.63 45.9-23.55 46.52-23.35 47.15-23.15 47.72-22.88 48.3-22.6 48.7-22.15L48.7-22.15Q48.25-21.65 46.42-18.8 44.6-15.95 42.35-10.6L42.35-10.6Q42.1-10.05 41.75-9 41.4-7.95 41.05-6.8 40.7-5.65 40.47-4.55 40.25-3.45 40.25-2.8L40.25-2.8Q40.25-2.4 40.37-2.2 40.5-2 40.6-1.9L40.6-1.9Q41.35-2.2 42.5-3.55 43.65-4.9 45.7-7.7L45.7-7.7Q46.2-8.4 46.87-9.3 47.55-10.2 48.25-11.23 48.95-12.25 49.57-13.35 50.2-14.45 50.6-15.55L50.6-15.55Q50.8-16.15 51.12-16.98 51.45-17.8 51.92-18.7 52.4-19.6 53.02-20.53 53.65-21.45 54.5-22.25L54.5-22.25Q55.15-22.25 55.9-22.1 56.65-21.95 57.32-21.73 58-21.5 58.5-21.23 59-20.95 59.25-20.65L59.25-20.65Q58.35-18.45 57.25-16.3 56.15-14.15 55.2-12.08 54.25-10 53.6-7.95 52.95-5.9 52.95-3.95L52.95-3.95Q52.95-2.9 53.12-2.13 53.3-1.35 53.5-0.83 53.7-0.3 53.87 0.05 54.05 0.4 54.05 0.65L54.05 0.65Q54.05 0.7 53.95 0.8L53.95 0.8Q53.9 0.85 53.85 0.85L53.85 0.85Q53.5 0.85 52.95 0.7 52.4 0.55 51.72 0.28 51.05 0 50.37-0.35 49.7-0.7 49.1-1.1ZM70.3-30.3L70.3-30.3Q68.3-30.3 67.22-31.43 66.15-32.55 66.15-34.15L66.15-34.15Q66.15-34.55 66.27-35.1 66.4-35.65 66.59-36.05L66.59-36.05Q67.25-35.75 68.52-35.63 69.8-35.5 71.5-35.5L71.5-35.5Q74.05-35.5 77.27-35.73 80.5-35.95 83.45-36.2 86.4-36.45 88.65-36.68 90.9-36.9 91.55-36.9L91.55-36.9Q93.4-36.9 94.22-35.52 95.05-34.15 95.45-31.85L95.45-31.85Q94.15-31.95 92.87-32.02 91.59-32.1 90.7-32.1L90.7-32.1Q89.09-32.1 87.47-32 85.84-31.9 84.2-31.7L84.2-31.7Q83.5-30.25 82.65-28.28 81.8-26.3 80.97-24.15 80.15-22 79.4-19.88 78.65-17.75 78.09-16.05L78.09-16.05Q77-12.75 76.17-9.95 75.34-7.15 74.72-4.73 74.09-2.3 73.65-0.1 73.2 2.1 72.84 4.2L72.84 4.2Q69.5 3.7 67.25 0L67.25 0Q67.65-1.55 68.22-3.38 68.8-5.2 69.57-7.53 70.34-9.85 71.4-12.8 72.45-15.75 73.8-19.5L73.8-19.5Q74.3-20.9 74.84-22.43 75.4-23.95 75.92-25.45 76.45-26.95 76.87-28.35 77.3-29.75 77.59-30.9L77.59-30.9Q75.5-30.65 73.62-30.48 71.75-30.3 70.3-30.3ZM94.94-9.3L94.94-9.3Q93.39-9.3 92.47-10.18 91.54-11.05 91.54-12.6L91.54-12.6Q91.54-12.85 91.64-13.35 91.74-13.85 91.84-14.1L91.84-14.1Q92.69-13.95 93.44-13.93 94.19-13.9 95.39-13.9L95.39-13.9Q97.94-13.9 100.17-14.05 102.39-14.2 104.19-14.4 105.99-14.6 107.29-14.75 108.59-14.9 109.29-14.9L109.29-14.9Q110.24-14.9 110.97-13.75 111.69-12.6 112.04-10.45L112.04-10.45Q110.79-10.6 109.99-10.65 109.19-10.7 108.59-10.7L108.59-10.7Q106.44-10.7 104.59-10.48 102.74-10.25 101.09-10 99.44-9.75 97.94-9.53 96.44-9.3 94.94-9.3ZM133.79-20.7L133.79-20.7Q133.59-17.6 132.69-15.38 131.79-13.15 130.12-11.48 128.44-9.8 126.04-8.45 123.64-7.1 120.44-5.85L120.44-5.85Q120.44-5.55 120.42-5.23 120.39-4.9 120.39-4.55L120.39-4.55Q120.39-3.9 120.49-3.2 120.59-2.5 120.84-1.9 121.09-1.3 121.54-0.93 121.99-0.55 122.69-0.55L122.69-0.55Q124.04-0.55 125.34-1.15 126.64-1.75 127.82-2.63 128.99-3.5 130.02-4.53 131.04-5.55 131.84-6.4L131.84-6.4Q132.34-5.95 132.69-5.55L132.69-5.55Q130.44-2.55 127.77-0.58 125.09 1.4 122.69 1.95L122.69 1.95Q119.24 1.55 117.32-0.58 115.39-2.7 115.39-5.7L115.39-5.7Q115.39-7.75 115.97-9.88 116.54-12 117.57-13.98 118.59-15.95 119.97-17.7 121.34-19.45 122.92-20.75 124.49-22.05 126.17-22.8 127.84-23.55 129.49-23.55L129.49-23.55Q131.79-23.25 133.79-20.7ZM130.34-19.05L130.34-19.05Q128.99-18.85 127.54-17.95 126.09-17.05 124.82-15.55 123.54-14.05 122.49-12.05 121.44-10.05 120.84-7.75L120.84-7.75Q124.84-9.75 127.49-12.68 130.14-15.6 130.34-19.05ZM144.19-24.25L144.19-24.25Q145.49-23.85 146.64-22.48 147.79-21.1 148.34-19.45L148.34-19.45Q147.79-18.1 146.64-16.2 145.49-14.3 144.34-12.33 143.19-10.35 142.26-8.58 141.34-6.8 141.19-5.65L141.19-5.65Q141.99-6.5 142.96-7.63 143.94-8.75 144.86-9.88 145.79-11 146.59-11.93 147.39-12.85 147.84-13.3L147.84-13.3Q148.79-14.3 150.09-15.63 151.39-16.95 152.81-18.13 154.24-19.3 155.69-20.13 157.14-20.95 158.34-20.95L158.34-20.95Q159.64-20.95 160.51-20.08 161.39-19.2 161.89-18.25L161.89-18.25Q161.89-18.15 161.51-17.98 161.14-17.8 160.44-17L160.44-17Q159.74-16.1 158.86-14.53 157.99-12.95 157.16-11.13 156.34-9.3 155.79-7.4 155.24-5.5 155.24-3.95L155.24-3.95Q155.24-2.7 155.56-2.35 155.89-2 156.49-2L156.49-2Q157.04-2 157.64-2.25 158.24-2.5 158.59-2.5L158.59-2.5Q158.79-2.4 158.91-2.08 159.04-1.75 159.04-1.5L159.04-1.5Q158.64-1.15 158.09-0.8 157.54-0.45 156.94-0.15 156.34 0.15 155.76 0.35 155.19 0.55 154.74 0.55L154.74 0.55Q153.29 0.55 152.36 0.13 151.44-0.3 150.91-1 150.39-1.7 150.19-2.68 149.99-3.65 149.99-4.75L149.99-4.75Q149.99-5.35 150.09-6.1 150.19-6.85 150.49-7.88 150.79-8.9 151.34-10.33 151.89-11.75 152.74-13.75L152.74-13.75Q152.64-13.75 151.39-13.05 150.14-12.35 148.69-10.9L148.69-10.9Q146.34-8.65 144.46-6.45 142.59-4.25 140.64-1.55L140.64-1.55Q139.54 0 138.71 1.07 137.89 2.15 137.29 2.5L137.29 2.5Q136.24 1.9 135.74 0.83 135.24-0.25 134.99-1.4L134.99-1.4Q134.99-2.35 135.26-3.8 135.54-5.25 136.01-7.03 136.49-8.8 137.19-10.75 137.89-12.7 138.74-14.65L138.74-14.65Q140.64-19.05 142.21-21.55 143.79-24.05 144.19-24.25Z" fill="#010c80" data-fill-palette-color="primary"></path></g></svg></g></svg></g></svg></g></svg></g><g transform="matrix(1,0,0,1,0,12.677794187140748)"><svg viewBox="0 0 183.32352 91.88834959903258" height="91.88834959903258" width="183.32352"><g><svg xmlns="http://www.w3.org/2000/svg" xmlns:xlink="http://www.w3.org/1999/xlink" xml:space="preserve" style="shape-rendering:geometricPrecision;text-rendering:geometricPrecision;image-rendering:optimizeQuality;" viewBox="0.0000020000000000575113 0.0000027841116459863258 14.727499 7.381952827609914" x="0" y="0" fill-rule="evenodd" clip-rule="evenodd" width="183.32352" height="91.88834959903258" class="icon-icon-0" data-fill-palette-color="accent" id="icon-0"><g fill="#7fdbff" data-fill-palette-color="accent"><path class="" d="M1.757 3.091c-0.313 0.444-0.296 1.331-0.417 1.95-0.153 0.784-0.711 1.203-1.34 1.534 0.188-0.771 0.348-1.542 0.412-2.313 0.078-0.953-0.06-0.891 0.767-1.575 1.159-0.961 3.04-1.741 5.848-2.29 2.456-0.406 5.049-0.453 7.701-0.351-0.89 1.809-3.733 1.961-7.203 1.581-1.811 0.02-3.495-0.488-5.768 1.464z m8.33 2.781c-3.895 2.038-7.803-2.284-9.165 0.688 2.104-1.831 5.079 3.183 9.165-0.688z m2.489-2.547c-4.49 2.72-9.502-0.792-10.907 1.859 3.412-1.235 7.765 2.753 10.907-1.859z m0.834-1.478c-3.944 1.761-10.043-1.402-11.565 2.239 3.106-1.808 8.446 1.438 11.565-2.239z" fill="#7fdbff" data-fill-palette-color="accent"></path></g></svg></g></svg></g></svg></g><defs></defs></svg><rect width="395.5199999999999" height="76.45612583677962" fill="none" stroke="none" visibility="hidden"></rect></g></svg></g></svg>